<svg width="351" height="5" viewBox="0 0 351 5" fill="none" xmlns="http://www.w3.org/2000/svg">
<path d="M40.659 3.62975C52.6572 3.7639 55.8406 4.169 68.2807 4.03915C74.2135 4.0859 80.5452 4.01025 86.3452 3.97725C89.0997 3.67389 93.9579 3.99159 97.2173 3.74081L98.4821 3.91994C99.604 3.83358 100.923 3.77705 102.049 3.87519L101.975 3.92509C103.65 3.79615 105.542 3.88035 106.377 3.81526L106.308 3.8664L108.344 3.84832L107.993 3.92074C110.917 3.78763 113.931 3.78547 116.584 3.85692L116.366 3.64378C122.043 3.89636 124.118 3.46055 129.242 3.75571L129.173 3.80685C135.649 3.26243 139.41 4.21511 146.089 3.6993C145.254 3.76316 146.445 3.81015 146.376 3.86129C149.448 3.80796 152.734 3.78449 152.783 3.36678C155.021 3.37854 154.606 3.50211 154.898 3.66412C154.888 3.48083 156.834 3.41 158.583 3.40342L157.78 3.47225L162.793 3.42261L161.81 3.07437C164.468 3.18004 162.484 3.49757 165.031 3.42093L165 3.13496C168.673 3.20044 170.83 3.6396 174.392 3.85996C189.181 4.01948 205.078 3.32902 218.84 3.86835L219.446 4.08491C219.711 4.39957 223.242 3.62902 223.768 3.92112L225.368 3.78222C225.82 3.83956 226.766 3.90181 225.969 3.97066C227.447 3.98661 227.484 3.93539 228.553 3.84279L230.142 4.04228C235.984 4.20853 240.95 3.84356 247.095 3.93604C254.478 4.35297 268.376 4.02155 276.382 3.82919C287.638 3.38846 300.723 4.67256 312.249 4.16411C312.627 4.20904 313.595 4.11131 313.589 4.07586L324.136 4.14648C324.136 4.14648 375.267 4.39655 336.428 1.69373L336.689 1.62597C330.895 1.44396 327.264 1.39814 323.281 1.73383C322.655 1.30953 318.539 1.67787 317.19 1.53763L317.317 1.50375C313.797 1.81984 310.067 1.21543 306.669 1.49762C306.802 1.46497 306.877 1.3491 307.653 1.34373C305.181 1.39124 301.799 1.47555 301.614 1.22952C295.708 1.27935 287.463 1.14491 283.682 1.52754L283.942 1.45978C281.783 1.71945 281.151 1.49183 278.738 1.62012C278.605 1.58802 278.435 1.57049 278.461 1.55712C276.111 1.81263 271.603 1.58012 269.705 1.68772L269.583 1.5237L264.905 1.54976L266.654 1.58961C266.047 2.03645 263.114 1.29967 259.722 1.58188C256.548 1.51766 253.282 2.49902 249.981 2.27077C248.407 2.47694 251.364 1.93218 249.014 2.08873C248.94 1.85397 250.109 1.94489 249.509 1.75645C247.201 1.8618 245.724 1.50743 242.875 1.65906L242.758 1.47673C239.041 1.80088 235.752 1.21958 233.279 1.53098C229.451 1.67159 230.713 0.983272 226.725 1.32995L225.173 1.07924C223.467 1.03461 223.95 1.37792 222.058 1.25463C222.175 1.09977 219.666 1.1252 220.777 0.980172C216.493 0.726228 212.084 1.30275 206.445 0.878005C205.222 1.17668 202.378 0.989908 201.468 1.21485C201.32 1.08253 195.78 1.17972 198.965 0.901877C199.242 0.879362 199.725 0.884249 199.688 0.935468L200.071 0.75684C196.856 0.410299 194.228 0.927789 191.044 0.868435C191.985 0.930676 193.245 0.917975 192.405 1.03925L189.449 1.00735L190.066 0.857413L185.659 0.758319L186.265 0.946774C184.107 0.844807 183.353 0.525251 180.917 0.785439C179.816 0.93049 182.958 1.04227 180.682 1.09517C177.801 0.960832 173.485 0.758119 169.807 0.692629C170.152 0.90364 169.157 0.893799 168.142 0.933995L168.025 0.751662C164.117 0.995914 166.596 0.346102 162.72 0.5379L163.066 0.40927L162.039 0.787858C158.54 1.14066 160.153 0.404356 156.266 0.888121C157.802 0.861458 156.988 1.2919 155.095 1.2077L155.574 1.03298C154.527 1.06699 154.176 1.14063 153.48 1.10222C154.102 1.0085 153.81 0.846489 152.273 0.873152L153.305 0.655845L150.397 0.97226C148.154 0.777227 144.591 1.00525 143.672 0.754914C143.672 0.754914 138.845 0.620551 137.734 0.890191C138.707 0.724049 136.044 0.652572 136.799 0.456558C135.549 0.645215 131.854 0.792266 130.372 0.584491L130.653 0.56199C125.184 0.340482 121.296 0.823025 116.385 0.557722C116.608 0.769646 114.014 0.648252 114.656 0.9211C109.573 1.17582 105.397 0.346714 103.561 1.17897C101.248 1.21833 100.823 0.975355 99.6273 0.929573L100.18 0.886987C95.8528 0.944476 94.5929 0.949847 91.3767 0.922177C89.771 0.999979 89.5202 1.38786 86.6391 1.28651C87.5698 1.13492 86.3948 1.16005 85.3157 1.15733C86.0015 1.13462 86.2143 1.07896 84.8058 0.971557C84.609 1.01871 84.3006 1.04725 84.0134 1.07096C84.0028 1.05872 83.9444 1.04879 83.9763 1.03299C82.1793 1.08343 82.4929 1.13187 83.3274 1.15475C83.2848 1.17786 83.3539 1.20857 83.6143 1.25199C81.7488 1.04814 78.4204 1.25231 78.1925 0.986622C72.7911 1.03407 68.9309 1.29921 64.4385 1.39049C63.9338 1.25238 64.9867 1.13409 66.2893 1.08484L63.0995 1.12688C63.1266 0.930249 64.9339 1.01911 65.9121 0.981266C62.1172 0.654031 58.086 1.27793 53.6371 0.975925L52.7117 1.12875L52.446 1.10242C52.4617 1.18432 51.462 1.29419 50.8028 1.31818C50.1759 1.14556 50.8463 0.923672 48.6454 0.92911C46.9021 0.759773 43.6959 0.999689 41.4097 1.08555C42.6377 1.11797 42.244 1.21105 41.7123 1.27079C40.6118 1.27412 39.9743 1.10147 39.1235 1.17262L39.0178 0.941449C39.4532 1.16002 36.1412 1.16876 35.7316 1.26302C35.1047 1.09039 37.4438 1.11951 37.7152 0.991917C33.2975 1.00275 35.5037 0.997327 31.0859 1.00694C28.7251 1.17447 31.516 1.22672 30.3831 1.42667C28.3044 1.46662 26.2679 1.62275 23.8814 1.47744L24.6357 1.68338C20.7227 1.83232 18.3836 1.8032 15.7527 1.58886C-13.3839 3.1854 9.60678 3.85433 9.60678 3.85433C21.0885 4.33781 27.0068 3.75532 40.659 3.62975Z" fill="#2F3033"/>
</svg>
